{
  "accessors": [
    {
      "bufferView": 3,
      "componentType": 5126,
      "count": 222,
      "max": [
        4.7539358139038086,
        3.4250094890594482,
        1.1497625112533569
      ],
      "min": [
        2.4825484752655029,
        1.692827582359314,
        -1.1216256618499756
      ],
      "type": "VEC3"
    },
    {
      "bufferView": 3,
      "byteOffset": 2664,
      "componentType": 5126,
      "count": 222,
      "max": [
        0.98443895578384399,
        0.99971497058868408,
        0.9956398606300354
      ],
      "min": [
        -0.99659538269042969,
        -1,
        -0.98628681898117065
      ],
      "type": "VEC3"
    },
    {
      "bufferView": 2,
      "componentType": 5126,
      "count": 222,
      "max": [
        0.72238749265670776,
        0.43302065134048462
      ],
      "min": [
        0.24929958581924438,
        0.0058666989207267761
      ],
      "type": "VEC2"
    },
    {
      "bufferView": 3,
      "byteOffset": 5328,
      "componentType": 5126,
      "count": 222,
      "max": [
        0.13289833068847656,
        0,
        0.12626421451568604
      ],
      "min": [
        -0.12714385986328125,
        -0.34643638134002686,
        -0.1337776780128479
      ],
      "type": "VEC3"
    },
    {
      "bufferView": 3,
      "byteOffset": 7992,
      "componentType": 5126,
      "count": 222,
      "max": [
        0.70737886428833008,
        0.35034134984016418,
        0.64055353403091431
      ],
      "min": [
        -0.78405225276947021,
        -0.71959447860717773,
        -0.67862433195114136
      ],
      "type": "VEC3"
    },
    {
      "bufferView": 3,
      "byteOffset": 10656,
      "componentType": 5126,
      "count": 222,
      "max": [
        0.15385961532592773,
        0.2886970043182373,
        0.16386467218399048
      ],
      "min": [
        -0.16229557991027832,
        0,
        -0.15229099988937378
      ],
      "type": "VEC3"
    },
    {
      "bufferView": 3,
      "byteOffset": 13320,
      "componentType": 5126,
      "count": 222,
      "max": [
        0.40036794543266296,
        0.59086072444915771,
        0.62564194202423096
      ],
      "min": [
        -0.7859809398651123,
        -0.67812585830688477,
        -0.62997579574584961
      ],
      "type": "VEC3"
    },
    {
      "bufferView": 3,
      "byteOffset": 15984,
      "componentType": 5126,
      "count": 222,
      "max": [
        2.2713871002197266,
        1.7321817874908447,
        2.271388053894043
      ],
      "min": [
        -2.2713873386383057,
        -1.7321819067001343,
        -2.271388053894043
      ],
      "type": "VEC3"
    },
    {
      "bufferView": 3,
      "byteOffset": 18648,
      "componentType": 5126,
      "count": 222,
      "max": [
        0.44056987762451172,
        0.3543490469455719,
        0.63170522451400757
      ],
      "min": [
        -0.7852357029914856,
        -0.67800068855285645,
        -0.63489252328872681
      ],
      "type": "VEC3"
    },
    {
      "bufferView": 3,
      "byteOffset": 21312,
      "componentType": 5126,
      "count": 222,
      "max": [
        1.0221242904663086,
        0.77948200702667236,
        1.0221246480941772
      ],
      "min": [
        -1.0221242904663086,
        -0.77948188781738281,
        -1.0221246480941772
      ],
      "type": "VEC3"
    },
    {
      "bufferView": 3,
      "byteOffset": 23976,
      "componentType": 5126,
      "count": 222,
      "max": [
        0.44056040048599243,
        0.35436642169952393,
        0.63170486688613892
      ],
      "min": [
        -0.7852357029914856,
        -0.67800068855285645,
        -0.63489264249801636
      ],
      "type": "VEC3"
    },
    {
      "bufferView": 1,
      "componentType": 5125,
      "count": 924,
      "max": [
        221
      ],
      "min": [
        0
      ],
      "type": "SCALAR"
    },
    {
      "bufferView": 3,
      "byteOffset": 26640,
      "componentType": 5126,
      "count": 56,
      "max": [
        4.4294357299804688,
        2.6790962219238281,
        0.8172038197517395
      ],
      "min": [
        2.8151640892028809,
        2.2640693187713623,
        -0.79721170663833618
      ],
      "type": "VEC3"
    },
    {
      "bufferView": 3,
      "byteOffset": 27312,
      "componentType": 5126,
      "count": 56,
      "max": [
        0.98502415418624878,
        0.91985607147216797,
        0.98858290910720825
      ],
      "min": [
        -0.99987989664077759,
        -0.9013214111328125,
        -0.98788940906524658
      ],
      "type": "VEC3"
    },
    {
      "bufferView": 2,
      "byteOffset": 1776,
      "componentType": 5126,
      "count": 56,
      "max": [
        0.37721961736679077,
        0.043456759303808212
      ],
      "min": [
        0.0050081610679626465,
        0.0016847348306328058
      ],
      "type": "VEC2"
    },
    {
      "bufferView": 3,
      "byteOffset": 27984,
      "componentType": 5126,
      "count": 56,
      "max": [
        0.13083291053771973,
        -0.14918065071105957,
        0.12314778566360474
      ],
      "min": [
        -0.12428951263427734,
        -0.23218607902526855,
        -0.13199681043624878
      ],
      "type": "VEC3"
    },
    {
      "bufferView": 3,
      "byteOffset": 28656,
      "componentType": 5126,
      "count": 56,
      "max": [
        0.1493910551071167,
        1.6907296180725098,
        1.7416882514953613
      ],
      "min": [
        -0.15289923548698425,
        -1.6910233497619629,
        -1.5995571613311768
      ],
      "type": "VEC3"
    },
    {
      "bufferView": 3,
      "byteOffset": 29328,
      "componentType": 5126,
      "count": 56,
      "max": [
        0.16262388229370117,
        0.19348835945129395,
        0.17270785570144653
      ],
      "min": [
        -0.17118525505065918,
        0.12431740760803223,
        -0.16112959384918213
      ],
      "type": "VEC3"
    },
    {
      "bufferView": 3,
      "byteOffset": 30000,
      "componentType": 5126,
      "count": 56,
      "max": [
        0.14307180047035217,
        1.8408405780792236,
        1.6866793632507324
      ],
      "min": [
        -0.13663646578788757,
        -1.8321152925491333,
        -1.5773427486419678
      ],
      "type": "VEC3"
    },
    {
      "bufferView": 3,
      "byteOffset": 30672,
      "componentType": 5126,
      "count": 56,
      "max": [
        1.6223869323730469,
        0.24035549163818359,
        1.6062707901000977
      ],
      "min": [
        -1.6061561107635498,
        -0.5896984338760376,
        -1.6225602626800537
      ],
      "type": "VEC3"
    },
    {
      "bufferView": 3,
      "byteOffset": 31344,
      "componentType": 5126,
      "count": 56,
      "max": [
        0.017522793263196945,
        1.7820401191711426,
        1.7235746383666992
      ],
      "min": [
        -0.017762839794158936,
        -1.7773542404174805,
        -1.5779819488525391
      ],
      "type": "VEC3"
    },
    {
      "bufferView": 3,
      "byteOffset": 32016,
      "componentType": 5126,
      "count": 56,
      "max": [
        0.72277021408081055,
        0.26536440849304199,
        0.73015213012695312
      ],
      "min": [
        -0.73007416725158691,
        -0.10816001892089844,
        -0.72282183170318604
      ],
      "type": "VEC3"
    },
    {
      "bufferView": 3,
      "byteOffset": 32688,
      "componentType": 5126,
      "count": 56,
      "max": [
        0.017522357404232025,
        1.7820498943328857,
        1.7235748767852783
      ],
      "min": [
        -0.017762422561645508,
        -1.777348518371582,
        -1.5779819488525391
      ],
      "type": "VEC3"
    },
    {
      "bufferView": 1,
      "byteOffset": 3696,
      "componentType": 5125,
      "count": 234,
      "max": [
        55
      ],
      "min": [
        0
      ],
      "type": "SCALAR"
    },
    {
      "bufferView": 5,
      "componentType": 5126,
      "count": 2,
      "max": [
        1,
        0,
        0,
        0,
        0,
        1,
        0,
        0,
        0,
        0,
        1,
        0,
        0,
        0,
        0.012266263365745544,
        1
      ],
      "min": [
        1,
        0,
        0,
        0,
        0,
        1,
        0,
        0,
        0,
        0,
        1,
        0,
        -3.641352653503418,
        -2.2970762252807617,
        0,
        1
      ],
      "type": "MAT4"
    },
    {
      "bufferView": 0,
      "componentType": 5123,
      "count": 222,
      "max": [
        1,
        1,
        1,
        1
      ],
      "min": [
        1,
        1,
        1,
        1
      ],
      "type": "VEC4"
    },
    {
      "bufferView": 4,
      "componentType": 5126,
      "count": 222,
      "max": [
        1,
        0,
        0,
        0
      ],
      "min": [
        1,
        0,
        0,
        0
      ],
      "type": "VEC4"
    },
    {
      "bufferView": 0,
      "byteOffset": 1776,
      "componentType": 5123,
      "count": 56,
      "max": [
        1,
        1,
        1,
        1
      ],
      "min": [
        1,
        1,
        1,
        1
      ],
      "type": "VEC4"
    },
    {
      "bufferView": 4,
      "byteOffset": 3552,
      "componentType": 5126,
      "count": 56,
      "max": [
        1,
        0,
        0,
        0
      ],
      "min": [
        1,
        0,
        0,
        0
      ],
      "type": "VEC4"
    },
    {
      "bufferView": 6,
      "componentType": 5126,
      "count": 200,
      "max": [
        33
      ],
      "min": [
        0.033333335071802139
      ],
      "type": "SCALAR"
    },
    {
      "bufferView": 8,
      "componentType": 5126,
      "count": 200,
      "max": [
        7.6327832942979512e-17,
        8.3266726846886741e-17,
        5.5511151231257827e-17,
        1
      ],
      "min": [
        -6.9388939039072284e-17,
        -5.5511151231257827e-17,
        -5.5511151231257827e-17,
        1
      ],
      "type": "VEC4"
    },
    {
      "bufferView": 6,
      "byteOffset": 800,
      "componentType": 5126,
      "count": 228,
      "max": [
        33
      ],
      "min": [
        0.033333335071802139
      ],
      "type": "SCALAR"
    },
    {
      "bufferView": 7,
      "componentType": 5126,
      "count": 228,
      "max": [
        -1.6052855253219604,
        5.6595582962036133,
        2.6714560985565186
      ],
      "min": [
        -5.9092750549316406,
        -40.336097717285156,
        -1.3064591884613037
      ],
      "type": "VEC3"
    },
    {
      "bufferView": 6,
      "byteOffset": 1712,
      "componentType": 5126,
      "count": 41,
      "max": [
        33
      ],
      "min": [
        0.033333335071802139
      ],
      "type": "SCALAR"
    },
    {
      "bufferView": 7,
      "byteOffset": 2736,
      "componentType": 5126,
      "count": 41,
      "max": [
        2.2200000286102295,
        2.2200000286102295,
        2.2200000286102295
      ],
      "min": [
        0.73599886894226074,
        0.73599886894226074,
        0.73599886894226074
      ],
      "type": "VEC3"
    },
    {
      "bufferView": 6,
      "byteOffset": 1876,
      "componentType": 5126,
      "count": 196,
      "max": [
        33
      ],
      "min": [
        0.033333335071802139
      ],
      "type": "SCALAR"
    },
    {
      "bufferView": 8,
      "byteOffset": 3200,
      "componentType": 5126,
      "count": 196,
      "max": [
        1,
        0.83974248170852661,
        0.90807640552520752,
        0.99961274862289429
      ],
      "min": [
        -0.8205561637878418,
        -0.67708063125610352,
        -0.67088788747787476,
        -0.40901285409927368
      ],
      "type": "VEC4"
    },
    {
      "bufferView": 6,
      "byteOffset": 2660,
      "componentType": 5126,
      "count": 229,
      "max": [
        33
      ],
      "min": [
        0.033333335071802139
      ],
      "type": "SCALAR"
    },
    {
      "bufferView": 7,
      "byteOffset": 3228,
      "componentType": 5126,
      "count": 229,
      "max": [
        -1.6052855253219604,
        5.6595587730407715,
        2.6714560985565186
      ],
      "min": [
        -5.9092750549316406,
        -40.336257934570312,
        -1.3064591884613037
      ],
      "type": "VEC3"
    },
    {
      "bufferView": 6,
      "byteOffset": 3576,
      "componentType": 5126,
      "count": 198,
      "max": [
        33
      ],
      "min": [
        0.033333335071802139
      ],
      "type": "SCALAR"
    },
    {
      "bufferView": 8,
      "byteOffset": 6336,
      "componentType": 5126,
      "count": 198,
      "max": [
        1,
        0.83974295854568481,
        0.90807640552520752,
        0.99961274862289429
      ],
      "min": [
        -0.8205561637878418,
        -0.67708063125610352,
        -0.67088788747787476,
        -0.40901285409927368
      ],
      "type": "VEC4"
    },
    {
      "bufferView": 6,
      "byteOffset": 4368,
      "componentType": 5126,
      "count": 87,
      "max": [
        33
      ],
      "min": [
        0.033333335071802139
      ],
      "type": "SCALAR"
    },
    {
      "bufferView": 6,
      "byteOffset": 4716,
      "componentType": 5126,
      "count": 348,
      "max": [
        0.99999940395355225
      ],
      "min": [
        0
      ],
      "type": "SCALAR"
    },
    {
      "bufferView": 6,
      "byteOffset": 6108,
      "componentType": 5126,
      "count": 87,
      "max": [
        33
      ],
      "min": [
        0.033333335071802139
      ],
      "type": "SCALAR"
    },
    {
      "bufferView": 6,
      "byteOffset": 6456,
      "componentType": 5126,
      "count": 348,
      "max": [
        0.99999940395355225
      ],
      "min": [
        0
      ],
      "type": "SCALAR"
    }
  ],
  "animations": [
    {
      "channels": [
        {
          "sampler": 0,
          "target": {
            "node": 12,
            "path": "rotation"
          }
        },
        {
          "sampler": 1,
          "target": {
            "node": 11,
            "path": "translation"
          }
        },
        {
          "sampler": 2,
          "target": {
            "node": 11,
            "path": "scale"
          }
        },
        {
          "sampler": 3,
          "target": {
            "node": 11,
            "path": "rotation"
          }
        },
        {
          "sampler": 4,
          "target": {
            "node": 10,
            "path": "translation"
          }
        },
        {
          "sampler": 5,
          "target": {
            "node": 10,
            "path": "rotation"
          }
        },
        {
          "sampler": 6,
          "target": {
            "node": 8,
            "path": "weights"
          }
        },
        {
          "sampler": 7,
          "target": {
            "node": 9,
            "path": "weights"
          }
        }
      ],
      "name": "Take 001",
      "samplers": [
        {
          "input": 29,
          "interpolation": "LINEAR",
          "output": 30
        },
        {
          "input": 31,
          "interpolation": "LINEAR",
          "output": 32
        },
        {
          "input": 33,
          "interpolation": "LINEAR",
          "output": 34
        },
        {
          "input": 35,
          "interpolation": "LINEAR",
          "output": 36
        },
        {
          "input": 37,
          "interpolation": "LINEAR",
          "output": 38
        },
        {
          "input": 39,
          "interpolation": "LINEAR",
          "output": 40
        },
        {
          "input": 41,
          "interpolation": "LINEAR",
          "output": 42
        },
        {
          "input": 43,
          "interpolation": "LINEAR",
          "output": 44
        }
      ]
    }
  ],
  "asset": {
    "extras": {
      "author": "Mingxuan Xie (https://sketchfab.com/vrchitecture)",
      "license": "CC-BY-4.0 (http://creativecommons.org/licenses/by/4.0/)",
      "source": "https://sketchfab.com/3d-models/mafamao-f282866c1e594b2fb6c256cbdf69bc27",
      "title": "mafamao"
    },
    "generator": "Sketchfab-9.72.0",
    "version": "2.0"
  },
  "bufferViews": [
    {
      "buffer": 0,
      "byteLength": 2224,
      "byteOffset": 0,
      "byteStride": 8,
      "name": "shortBufferViews",
      "target": 34962
    },
    {
      "buffer": 0,
      "byteLength": 4632,
      "byteOffset": 2224,
      "name": "floatBufferViews",
      "target": 34963
    },
    {
      "buffer": 0,
      "byteLength": 2224,
      "byteOffset": 6856,
      "byteStride": 8,
      "name": "floatBufferViews",
      "target": 34962
    },
    {
      "buffer": 0,
      "byteLength": 33360,
      "byteOffset": 9080,
      "byteStride": 12,
      "name": "floatBufferViews",
      "target": 34962
    },
    {
      "buffer": 0,
      "byteLength": 4448,
      "byteOffset": 42440,
      "byteStride": 16,
      "name": "floatBufferViews",
      "target": 34962
    },
    {
      "buffer": 0,
      "byteLength": 128,
      "byteOffset": 46888,
      "byteStride": 64,
      "name": "floatBufferViews"
    },
    {
      "buffer": 0,
      "byteLength": 7848,
      "byteOffset": 47016,
      "name": "floatBufferViews"
    },
    {
      "buffer": 0,
      "byteLength": 5976,
      "byteOffset": 54864,
      "byteStride": 12,
      "name": "floatBufferViews"
    },
    {
      "buffer": 0,
      "byteLength": 9504,
      "byteOffset": 60840,
      "byteStride": 16,
      "name": "floatBufferViews"
    }
  ],
  "buffers": [
    {
      "byteLength": 70344,
      "uri": "scene.bin"
    }
  ],
  "images": [
    {
      "uri": "textures/lambert1_baseColor.png"
    },
    {
      "uri": "textures/lambert1_metallicRoughness.png"
    }
  ],
  "materials": [
    {
      "doubleSided": true,
      "name": "lambert1",
      "pbrMetallicRoughness": {
        "baseColorFactor": [
          1,
          1,
          1,
          1
        ],
        "baseColorTexture": {
          "index": 0,
          "texCoord": 0
        },
        "metallicFactor": 0,
        "metallicRoughnessTexture": {
          "index": 1,
          "texCoord": 0
        },
        "roughnessFactor": 1
      }
    }
  ],
  "meshes": [
    {
      "name": "0",
      "primitives": [
        {
          "attributes": {
            "JOINTS_0": 25,
            "NORMAL": 1,
            "POSITION": 0,
            "TEXCOORD_0": 2,
            "WEIGHTS_0": 26
          },
          "indices": 11,
          "material": 0,
          "mode": 4,
          "targets": [
            {
              "NORMAL": 4,
              "POSITION": 3
            },
            {
              "NORMAL": 6,
              "POSITION": 5
            },
            {
              "NORMAL": 8,
              "POSITION": 7
            },
            {
              "NORMAL": 10,
              "POSITION": 9
            }
          ]
        }
      ],
      "weights": [
        0,
        0,
        0,
        0
      ]
    },
    {
      "name": "1",
      "primitives": [
        {
          "attributes": {
            "JOINTS_0": 27,
            "NORMAL": 13,
            "POSITION": 12,
            "TEXCOORD_0": 14,
            "WEIGHTS_0": 28
          },
          "indices": 23,
          "material": 0,
          "mode": 4,
          "targets": [
            {
              "NORMAL": 16,
              "POSITION": 15
            },
            {
              "NORMAL": 18,
              "POSITION": 17
            },
            {
              "NORMAL": 20,
              "POSITION": 19
            },
            {
              "NORMAL": 22,
              "POSITION": 21
            }
          ]
        }
      ],
      "weights": [
        0,
        0,
        0,
        0
      ]
    }
  ],
  "nodes": [
    {
      "children": [
        1
      ],
      "name": "RootNode (gltf orientation matrix)",
      "rotation": [
        -0.70710678118654746,
        -0,
        -0,
        0.70710678118654757
      ]
    },
    {
      "children": [
        2
      ],
      "matrix": [
        0.65966159105300903,
        0,
        0,
        0,
        0,
        0.65966159105300903,
        0,
        0,
        0,
        0,
        0.65966159105300903,
        0,
        0,
        0,
        0,
        1
      ],
      "name": "RootNode (model correction matrix)"
    },
    {
      "children": [
        3
      ],
      "matrix": [
        1,
        0,
        0,
        0,
        0,
        0,
        1,
        0,
        0,
        -1,
        0,
        0,
        0,
        0,
        0,
        1
      ],
      "name": "2776d3899200468fa6c41755b38e69fe.fbx"
    },
    {
      "children": [
        4
      ],
      "name": ""
    },
    {
      "children": [
        5
      ],
      "name": "RootNode"
    },
    {
      "children": [
        6
      ],
      "name": "mofamao1:mofamao_ctl_gp",
      "translation": [
        3.641352653503418,
        2.2970762252807617,
        -0.012266263365745544
      ]
    },
    {
      "children": [
        7,
        8,
        9,
        11,
        13
      ],
      "name": ""
    },
    {
      "children": [
        10
      ],
      "name": "_rootJoint"
    },
    {
      "mesh": 0,
      "name": "",
      "skin": 0
    },
    {
      "mesh": 1,
      "name": "",
      "skin": 0
    },
    {
      "name": "mofamao1:mofamao_00",
      "rotation": [
        0.89059621095657349,
        -0.0078799556940793991,
        -0.004023243673145771,
        0.45470881462097168
      ],
      "translation": [
        -3.6013903617858887,
        1.1514600515365601,
        -1.2098009586334229
      ]
    },
    {
      "children": [
        12
      ],
      "name": "mofamao1:mofamao_ctl1",
      "rotation": [
        0.89059621095657349,
        -0.0078799556940793991,
        -0.004023243673145771,
        0.45470881462097168
      ],
      "scale": [
        1.3600000143051147,
        1.3600000143051147,
        1.3600000143051147
      ],
      "translation": [
        -3.6013903617858887,
        1.1514600515365601,
        -1.2098009586334229
      ]
    },
    {
      "name": "mofamao1:mofamao_ctl",
      "rotation": [
        5.5511151231257827e-17,
        3.538561045758505e-19,
        -1.2459857756038055e-18,
        1
      ]
    },
    {
      "children": [
        14,
        15
      ],
      "name": "mofamao1:Hat",
      "translation": [
        -3.641352653503418,
        -2.2970762252807617,
        0.012266263365745544
      ]
    },
    {
      "name": "mofamao1:Hat2"
    },
    {
      "name": "mofamao1:Hat1"
    }
  ],
  "samplers": [
    {
      "magFilter": 9729,
      "minFilter": 9987,
      "wrapS": 10497,
      "wrapT": 10497
    }
  ],
  "scene": 0,
  "scenes": [
    {
      "name": "OSG_Scene",
      "nodes": [
        0
      ]
    }
  ],
  "skins": [
    {
      "inverseBindMatrices": 24,
      "joints": [
        7,
        10
      ],
      "skeleton": 7
    }
  ],
  "textures": [
    {
      "sampler": 0,
      "source": 0
    },
    {
      "sampler": 0,
      "source": 1
    }
  ]
}

